<?xml version="1.0" encoding="UTF-8"?>
<svg version="1.1" xmlns="http://www.w3.org/2000/svg" width="512" height="533">
<path d="M0 0 C11.50475889 10.10565921 22.17523235 20.89344105 31.25488281 33.2421875 C32.47620821 34.90021471 33.72133776 36.5379642 34.97021484 38.17529297 C70.6532608 85.69380467 84.36452515 147.13864673 76.46630859 205.58544922 C70.69548409 244.78890166 55.9610727 281.64782294 31.49755859 312.92919922 C30.82337891 313.81478516 30.14919922 314.70037109 29.45458984 315.61279297 C23.89984757 322.770966 17.73349455 329.36674095 11.49755859 335.92919922 C10.31806641 337.1725 10.31806641 337.1725 9.11474609 338.44091797 C-4.71650575 352.64397766 -21.30342729 364.18535723 -38.50244141 373.92919922 C-39.09460449 374.27047852 -39.68676758 374.61175781 -40.296875 374.96337891 C-91.34274887 404.23248079 -154.69906378 410.52520068 -211.22900391 395.72216797 C-258.93605491 382.49342205 -303.40305188 354.72742413 -333.17138672 314.70898438 C-334.51992269 312.90582457 -335.89549106 311.12602326 -337.27587891 309.34716797 C-343.88042787 300.72892435 -349.31691099 291.71112328 -354.35888672 282.10205078 C-355.41615342 280.09315377 -356.49923539 278.10061232 -357.58837891 276.10888672 C-384.51792463 225.82766248 -388.7820516 162.29435263 -372.49072266 107.97216797 C-364.11629505 81.47706706 -352.32859608 57.09116469 -335.50244141 34.92919922 C-334.83728516 34.05134766 -334.17212891 33.17349609 -333.48681641 32.26904297 C-295.68811635 -16.20855813 -240.4041542 -47.31894216 -179.50244141 -55.07080078 C-178.78491699 -55.16651367 -178.06739258 -55.26222656 -177.328125 -55.36083984 C-113.12775925 -62.9329819 -48.72488135 -41.93679534 0 0 Z M-189.50244141 -20.07080078 C-190.32808594 -19.89919434 -191.15373047 -19.72758789 -192.00439453 -19.55078125 C-229.08129579 -11.59048722 -261.73226368 6.38572859 -289.05810547 32.54785156 C-290.34045759 33.77427961 -291.63541801 34.98749409 -292.93212891 36.19873047 C-327.88472037 69.72087779 -347.11033849 119.83692884 -348.75244141 167.67138672 C-349.78849958 223.00653115 -328.34721606 273.11147422 -290.50244141 312.92919922 C-289.92365234 313.56083984 -289.34486328 314.19248047 -288.74853516 314.84326172 C-283.50409738 320.39001045 -277.37346453 324.94876992 -271.30810547 329.55029297 C-269.66773652 330.80297061 -268.04863041 332.08336978 -266.43212891 333.36669922 C-227.21504463 363.24638247 -173.69209779 375.35471804 -125.12744141 368.80419922 C-92.12254265 363.83173858 -59.91258311 351.62713404 -33.50244141 330.92919922 C-32.19339844 329.93339844 -32.19339844 329.93339844 -30.85791016 328.91748047 C11.23434837 296.23797896 37.74969445 248.63017601 44.47753906 195.84667969 C50.25803536 145.43197148 36.06983348 93.90043668 5.05615234 53.72216797 C2.9240093 51.07089444 0.74041211 48.48719821 -1.50244141 45.92919922 C-2.22947266 45.09259766 -2.95650391 44.25599609 -3.70556641 43.39404297 C-5.93627457 40.87084684 -8.20450801 38.39127071 -10.50244141 35.92919922 C-11.26041016 35.11708984 -12.01837891 34.30498047 -12.79931641 33.46826172 C-19.4846082 26.54264898 -26.81383393 20.68226206 -34.50244141 14.92919922 C-35.33388672 14.30271484 -36.16533203 13.67623047 -37.02197266 13.03076172 C-70.1880892 -11.03868572 -109.92671322 -23.28799251 -150.75244141 -23.32080078 C-151.50777161 -23.32147552 -152.26310181 -23.32215027 -153.0413208 -23.32284546 C-165.41134187 -23.30533901 -177.36409611 -22.62663561 -189.50244141 -20.07080078 Z " fill="#000000" transform="translate(407.50244140625,99.07080078125)"/>
<path d="M0 0 C15.9243567 13.8341502 24.35180123 31.11817223 26.28515625 52.09375 C26.87273746 71.10072484 19.77329919 89.70024992 6.9375 103.63476562 C-6.66105673 117.71139661 -24.84813301 124.84954194 -44.3125 125.3125 C-60.64301627 125.04750176 -75.18304256 120.08859521 -88 110 C-88.76054687 109.41605469 -89.52109375 108.83210938 -90.3046875 108.23046875 C-103.66359923 97.25212433 -111.60910794 80.97533365 -114 64 C-115.78393395 43.97557736 -110.87842009 25.64198282 -98.3125 9.6875 C-73.06834352 -18.95050833 -30.28233279 -22.96085319 0 0 Z M-72.75 31.8125 C-79.99152762 40.42628057 -81.9018856 49.99438157 -81 61 C-79.07079521 70.75661531 -74.52642006 78.72876358 -66.609375 84.84765625 C-57.29804838 90.80631967 -47.43423062 93.55948794 -36.46484375 91.53125 C-26.144228 88.85139923 -18.13433466 82.66023717 -12 74 C-7.00833367 64.30520296 -5.68682715 55.09434457 -8.5625 44.5625 C-12.0845069 33.91027632 -19.14995439 26.40249981 -28.89453125 20.9375 C-45.04108693 13.86700825 -61.27413964 19.63453004 -72.75 31.8125 Z " fill="#000000" transform="translate(300,164)"/>
<path d="M0 0 C0.71881348 0.18224121 1.43762695 0.36448242 2.17822266 0.55224609 C11.42657041 2.95725853 20.31635935 5.98597273 29 10 C30.10730469 10.50144531 31.21460938 11.00289063 32.35546875 11.51953125 C47.55582883 18.72325351 68.21211986 31.42423973 76 47 C76.50502343 52.53042052 76.73807257 57.41030524 74.375 62.5 C69.80134327 67.3143755 66.6912538 69.25156236 60 69.5 C52.35680808 69.18975974 49.08637153 66.12866338 43.9375 60.8125 C32.07365558 48.75092484 16.61733377 41.02968959 0.75 35.625 C0.05430908 35.38628174 -0.64138184 35.14756348 -1.3581543 34.90161133 C-29.98411322 25.67765416 -62.68079802 29.91424962 -89.4921875 42.66015625 C-99.00966656 47.57565426 -107.39960046 53.54571832 -115.3125 60.75 C-116.54806641 61.86955078 -116.54806641 61.86955078 -117.80859375 63.01171875 C-118.53175781 63.66785156 -119.25492188 64.32398438 -120 65 C-124.84836659 69.32137022 -128.85538015 69.61675569 -135.15625 69.3828125 C-140.39227065 68.67796357 -142.86097828 66.19897023 -146.375 62.5 C-148.77697047 57.32652513 -148.73692333 52.60837437 -148 47 C-146.5625 43.8125 -146.5625 43.8125 -144 41 C-143.13761719 40.02546875 -143.13761719 40.02546875 -142.2578125 39.03125 C-123.4956814 18.9239095 -96.46224614 6.11761604 -70 0 C-69.34257812 -0.16371094 -68.68515625 -0.32742188 -68.0078125 -0.49609375 C-47.08769851 -5.57909333 -20.82801561 -5.38112962 0 0 Z " fill="#000000" transform="translate(292,326)"/>
</svg>
